<svg width="16" height="17" viewBox="0 0 16 17" fill="none" xmlns="http://www.w3.org/2000/svg">
    <path d="M12.7085 11.0792H3.29154C2.86066 11.0792 2.51013 10.7771 2.51013 10.4057V8.04301C2.51013 7.67165 2.86066 7.36951 3.29154 7.36951H12.7085C13.1394 7.36951 13.4899 7.67165 13.4899 8.04301V10.4057C13.4899 10.7771 13.1394 11.0792 12.7085 11.0792ZM3.13513 10.4012C3.14613 10.4199 3.20166 10.4592 3.29154 10.4592H12.7085C12.7984 10.4592 12.8539 10.42 12.8649 10.4012V8.04751C12.8539 8.02878 12.7984 7.98954 12.7085 7.98954H3.29154C3.20163 7.98954 3.14613 8.02878 3.13513 8.04751V10.4012Z" fill="black"/>
    <path d="M11.8293 7.98951H4.17078C3.99821 7.98951 3.85828 7.85072 3.85828 7.67949V4.89327C3.85828 4.72205 3.99821 4.58325 4.17078 4.58325H11.8293C12.0019 4.58325 12.1418 4.72205 12.1418 4.89327V7.67949C12.1418 7.85072 12.0019 7.98951 11.8293 7.98951ZM4.48328 7.36948H11.5168V5.20328H4.48328V7.36948Z" fill="black"/>
    <path d="M2.82263 12.176C2.65007 12.176 2.51013 12.0372 2.51013 11.866V10.4057C2.51013 10.2345 2.65007 10.0957 2.82263 10.0957C2.99519 10.0957 3.13513 10.2345 3.13513 10.4057V11.866C3.13513 12.0372 2.99523 12.176 2.82263 12.176Z" fill="black"/>
    <path d="M13.1774 12.176C13.0048 12.176 12.8649 12.0372 12.8649 11.866V10.4057C12.8649 10.2345 13.0048 10.0957 13.1774 10.0957C13.3499 10.0957 13.4899 10.2345 13.4899 10.4057V11.866C13.4899 12.0372 13.3499 12.176 13.1774 12.176Z" fill="black"/>
    <path d="M7.05574 7.98949H5.44067C5.26811 7.98949 5.12817 7.8507 5.12817 7.67947V6.43904C5.12817 6.26782 5.26811 6.12903 5.44067 6.12903H7.05577C7.22833 6.12903 7.36827 6.26782 7.36827 6.43904V7.67947C7.36824 7.8507 7.22833 7.98949 7.05574 7.98949ZM5.75317 7.36946H6.74327V6.74906H5.75317V7.36946Z" fill="black"/>
    <path d="M10.5463 7.98949H8.93127C8.75871 7.98949 8.61877 7.8507 8.61877 7.67947V6.43904C8.61877 6.26782 8.75871 6.12903 8.93127 6.12903H10.5463C10.7189 6.12903 10.8588 6.26782 10.8588 6.43904V7.67947C10.8588 7.8507 10.7189 7.98949 10.5463 7.98949ZM9.24381 7.36946H10.2339V6.74906H9.24381V7.36946Z" fill="black"/>
</svg>
