<svg width="18" height="17" viewBox="0 0 18 17" fill="none" xmlns="http://www.w3.org/2000/svg">
    <path d="M3.90569 10.7423L1.89076 11.6658C1.77255 11.7201 1.68882 11.7789 1.63957 11.8422C1.5903 11.9055 1.56567 11.9914 1.56567 12.1C1.56567 12.2085 1.5903 12.2944 1.63957 12.3577C1.68882 12.421 1.77255 12.4798 1.89076 12.5341L8.16593 15.4102C8.42205 15.5248 8.74386 15.5761 9.13133 15.564C9.5188 15.5761 9.84061 15.5248 10.0967 15.4102L16.3719 12.5341C16.4901 12.4798 16.5738 12.421 16.6231 12.3577C16.6724 12.2944 16.697 12.2085 16.697 12.1C16.697 11.9914 16.6724 11.9055 16.6231 11.8422C16.5738 11.7789 16.4901 11.7201 16.3719 11.6658L14.357 10.7423L13.1473 11.2967L14.8998 12.1L9.6204 14.5197C9.56764 14.5426 9.43477 14.5808 9.16794 14.5725L9.13133 14.5714L9.09472 14.5725C8.82789 14.5808 8.69502 14.5426 8.64226 14.5197L3.36285 12.1L5.11532 11.2967L3.90569 10.7423ZM2.36878 12.5557C2.36878 12.5557 2.36902 12.5556 2.36946 12.5554L2.36895 12.5556L2.36878 12.5557ZM1.89076 8.2065L3.91971 7.27655L5.12933 7.83098L3.36285 8.64062L8.64226 11.0604C8.69502 11.0832 8.82789 11.1215 9.09472 11.1132L9.13133 11.112L9.16794 11.1132C9.43477 11.1215 9.56764 11.0832 9.6204 11.0604L14.8998 8.64062L13.1333 7.83098L14.343 7.27655L16.3719 8.2065C16.4901 8.26076 16.5738 8.31954 16.6231 8.38287C16.6724 8.44618 16.697 8.53208 16.697 8.64062C16.697 8.74915 16.6724 8.83509 16.6231 8.8984C16.5738 8.9617 16.4901 9.02048 16.3719 9.07476L10.0967 11.9509C9.84061 12.0654 9.5188 12.1167 9.13133 12.1047C8.74386 12.1167 8.42205 12.0654 8.16593 11.9509L1.89076 9.07476C1.77255 9.02048 1.68882 8.9617 1.63954 8.8984C1.5903 8.83509 1.56567 8.74915 1.56567 8.64062C1.56567 8.53208 1.5903 8.44618 1.63954 8.38287C1.68882 8.31954 1.77255 8.26076 1.89076 8.2065ZM8.16593 1.84534L1.89076 4.72147C1.77255 4.77576 1.68882 4.83453 1.63954 4.89784C1.5903 4.96118 1.56567 5.04708 1.56567 5.15562C1.56567 5.26415 1.5903 5.35006 1.63954 5.41339C1.68882 5.4767 1.77255 5.53548 1.89076 5.58976L8.16593 8.46589C8.42205 8.58044 8.74386 8.63169 9.13133 8.61963C9.5188 8.63169 9.84061 8.58044 10.0967 8.46589L16.3719 5.58976C16.4901 5.53548 16.5738 5.4767 16.6231 5.41339C16.6724 5.35006 16.697 5.26415 16.697 5.15562C16.697 5.04708 16.6724 4.96118 16.6231 4.89784C16.5738 4.83453 16.4901 4.77576 16.3719 4.72147L10.0967 1.84534C9.84061 1.73079 9.5188 1.67954 9.13133 1.6916C8.74386 1.67954 8.42205 1.73079 8.16593 1.84534ZM2.36882 8.1849L2.36885 8.18493L2.36946 8.18524C2.36902 8.18499 2.36882 8.1849 2.36882 8.1849ZM9.13133 2.68421L9.16794 2.68306C9.43473 2.67475 9.56764 2.71301 9.6204 2.73589L14.8998 5.15562L9.6204 7.57535C9.56764 7.59822 9.43477 7.63648 9.16794 7.62817L9.13133 7.62702L9.09472 7.62817C8.82789 7.63648 8.69502 7.59822 8.64226 7.57535L3.36285 5.15562L8.64226 2.73589C8.69502 2.71301 8.82793 2.67475 9.09472 2.68306L9.13133 2.68421Z" fill="#2F2F2F"/>
</svg>
